<?xml version="1.0" encoding="utf-8"?>
<svg xmlns="http://www.w3.org/2000/svg" viewBox="0 0 500 500" xmlns:bx="https://boxy-svg.com" width="500px" height="500px"><defs><bx:export><bx:file format="png" width="1000" height="1000" dpi="400" antialiasing="false"/><bx:file format="svg"/><bx:file format="png" href="#object-0" path="Untitled 2.png"/></bx:export></defs><g fill="none" fill-rule="nonzero" stroke="none" stroke-width="none" stroke-linecap="none" stroke-linejoin="none" stroke-miterlimit="10" stroke-dasharray="" stroke-dashoffset="0" font-family="none" font-weight="none" font-size="none" text-anchor="none" style="mix-blend-mode: normal;" transform="matrix(0.929804, 0, 0, 0.957182, -488.669647, -83.896996)" id="object-0"><g id="Group 1"><g id="Group 1" stroke-linecap="round" stroke-linejoin="round"><path d="M765.01133,420.5c-5.52285,0 -10,-4.38388 -10,-9.79167v-168.41667c0,-5.40779 4.47715,-9.79167 10,-9.79167h240c5.52285,0 10,4.38388 10,9.79167v168.41667c0,5.40779 -4.47715,9.79167 -10,9.79167z" id="Path 1" stroke-width="1" style="fill: rgb(67, 141, 95); stroke: rgb(67, 141, 95);"/><path d="M767.51133,399v-153h235v153z" id="Path 1" stroke-width="1" style="fill: rgb(211, 239, 196); stroke: rgb(211, 239, 196);"/><path d="M588.51133,456c-11.04569,0 -20,-8.95431 -20,-20v-212c0,-11.04569 8.95431,-20 20,-20h109c11.04569,0 20,8.95431 20,20v212c0,11.04569 -8.95431,20 -20,20z" id="Path 1" stroke-width="1" style="fill: rgb(67, 141, 95); stroke: rgb(67, 141, 95);"/><path d="M580.51133,420.75v-181.5h125v181.5z" id="Path 1" stroke-width="1" style="fill: rgb(211, 239, 196); stroke: rgb(211, 239, 196);"/><path d="M828.50248,452h113.0177" id="Path 1" stroke-width="15" style="fill: rgb(67, 141, 95); stroke: rgb(67, 141, 95);"/></g><g id="Group 1" fill-opacity="0" fill="#000000" stroke="#202020" stroke-width="9" stroke-linecap="round" stroke-linejoin="round" style=""><path d="M624.01133,438h38" id="Path 1"/><path d="M624.01133,222h38" id="Path 1"/></g><g id="Group 1" fill="#73a975" stroke="#202020" stroke-width="8" stroke-linecap="round" stroke-linejoin="round" style=""><path d="M787.51951,345.26022h-55.01635v16.73978l-35.11682,-32.51708l35.11682,-32.51708v16.73978h55.01635v-16.73978l35.11682,32.51708l-35.11682,32.51708z" id="Path 1" style="fill: rgb(211, 239, 196);"/></g><g id="Group 1" fill="#324437" stroke="#324437" stroke-width="1" stroke-linecap="round" stroke-linejoin="round" style=""><path d="M851.51133,452v-40h67v40z" id="Path 1" style="fill: rgb(67, 141, 95); stroke: rgb(67, 141, 95);"/></g></g><g id="Layer2 1" stroke-width="9" stroke-linecap="round" stroke-linejoin="round" style=""><path d="M661.91727,303.67925l5.64019,6.26102l14.43121,16.01968l-14.43121,16.01968l-5.64019,6.26102" id="Path 1" fill-opacity="0" fill="#ffffff" stroke="#202020"/><path d="M626.08273,348.24065l-5.64019,-6.26102l-14.43121,-16.01968l14.43121,-16.01968l5.64019,-6.26102" id="Path 1" fill-opacity="0" fill="#ffffff" stroke="#202020"/><path d="M649.68784,302.91988l-11.37569,46.08012" id="Path 1" fill-opacity="0" fill="#000000" stroke="#000000"/><path d="M862.09406,351.14178l-5.64019,-7.07626l-14.43121,-18.10557l14.43121,-18.10557l5.64019,-7.07626" id="Path 1" fill-opacity="0" fill="#ffffff" stroke="#202020"/><path d="M908.92861,300.77813l5.64019,7.07626l14.43121,18.10557l-14.43121,18.10557l-5.64019,7.07626" id="Path 1" fill-opacity="0" fill="#ffffff" stroke="#202020"/><path d="M891.19918,299.91989l-11.37569,52.08012" id="Path 1" fill-opacity="0" fill="#000000" stroke="#000000"/></g></g></svg>